<svg xmlns="http://www.w3.org/2000/svg" xml:space="preserve" viewBox="0 0 150 150" id="calender">
  <path d="M11 11h128v128H11z" fill="#334d5c"></path>
  <path d="M109.496 44.705h-6.81l-2.54-2.53-.24-.24a5.66 5.66 0 0 0-2.14-1.37c-3.06-1.11-6.46.74-7.57 3.8a.79.79 0 0 0-.06.34h-1.38l-2.54-2.53-.07-.07a5.873 5.873 0 0 0-2.31-1.54c-3.06-1.11-6.46.74-7.57 3.8a.79.79 0 0 0-.06.34h-1.38l-2.54-2.53-.24-.24a5.66 5.66 0 0 0-2.14-1.37c-3.06-1.11-6.46.74-7.57 3.8a.79.79 0 0 0-.06.34h-1.38l-2.54-2.53-.24-.24a5.66 5.66 0 0 0-2.14-1.37c-3.06-1.11-6.46.74-7.57 3.8a.79.79 0 0 0-.06.34h-7.85c-1.65 0-3 1.35-3 3v59.05c0 .87.37 1.66.97 2.21L68.502 139H139V72.979l-27.324-27.324a2.98 2.98 0 0 0-2.18-.95z" opacity=".1"></path>
  <path d="M112.5 58.707h-75v-11a3 3 0 0 1 3-3h69a3 3 0 0 1 3 3v11z" fill="#fcd462"></path>
  <circle cx="51.803" cy="50.926" r="3" fill="#3a556a"></circle>
  <path d="M59.308 43.625a5.86 5.86 0 0 0-3.33-3.056c-3.06-1.115-6.458.736-7.576 3.796a.88.88 0 0 0-.052.346h1.837c.88-1.967 3.133-3.23 5.187-2.483a4.107 4.107 0 0 1 2.333 2.141 4.12 4.12 0 0 1 .134 3.168 4.155 4.155 0 0 1-5.314 2.477.882.882 0 1 0-.604 1.66 5.86 5.86 0 0 0 2.503.336 5.927 5.927 0 0 0 5.073-3.867 5.873 5.873 0 0 0-.19-4.518z" fill="#1c75a1"></path>
  <circle cx="65.733" cy="50.926" r="3" fill="#3a556a"></circle>
  <path d="M73.238 43.625a5.86 5.86 0 0 0-3.33-3.056c-3.06-1.115-6.458.736-7.576 3.796a.88.88 0 0 0-.052.346h1.837c.88-1.967 3.133-3.23 5.187-2.483a4.107 4.107 0 0 1 2.333 2.141 4.12 4.12 0 0 1 .134 3.168 4.155 4.155 0 0 1-5.314 2.477.882.882 0 1 0-.604 1.66 5.86 5.86 0 0 0 2.503.336 5.927 5.927 0 0 0 5.073-3.867 5.873 5.873 0 0 0-.19-4.518z" fill="#1c75a1"></path>
  <circle cx="79.663" cy="50.926" r="3" fill="#3a556a"></circle>
  <path d="M87.168 43.625a5.86 5.86 0 0 0-3.33-3.056c-3.06-1.115-6.458.736-7.576 3.796a.88.88 0 0 0-.052.346h1.837c.88-1.967 3.133-3.23 5.187-2.483a4.107 4.107 0 0 1 2.333 2.141 4.12 4.12 0 0 1 .134 3.168 4.155 4.155 0 0 1-5.314 2.477.882.882 0 1 0-.604 1.66 5.86 5.86 0 0 0 2.503.336 5.927 5.927 0 0 0 5.073-3.867 5.873 5.873 0 0 0-.19-4.518z" fill="#1c75a1"></path>
  <circle cx="93.593" cy="50.926" r="3" fill="#3a556a"></circle>
  <path d="M101.098 43.625a5.86 5.86 0 0 0-3.33-3.056c-3.06-1.115-6.458.736-7.576 3.796a.88.88 0 0 0-.052.346h1.837c.88-1.967 3.133-3.23 5.187-2.483a4.107 4.107 0 0 1 2.333 2.141 4.12 4.12 0 0 1 .134 3.168 4.155 4.155 0 0 1-5.314 2.477.882.882 0 1 0-.604 1.66 5.86 5.86 0 0 0 2.503.336 5.927 5.927 0 0 0 5.073-3.867 5.873 5.873 0 0 0-.19-4.518z" fill="#1c75a1"></path>
  <path d="M112.5 58.707h-75v48.051a3 3 0 0 0 3 3h61.077L112.5 98.836V58.707z" fill="#e1e6e9"></path>
  <path d="M101.577 109.758L112.5 98.836h-10.923z" fill="#ebf0f3"></path>
  <g>
    <path d="M48.954 74.233h8v8h-8zM59.884 74.233h8v8h-8zM70.982 74.233h8v8h-8zM81.982 74.233h8v8h-8zM93.046 74.233h8v8h-8z" fill="#44c4a1"></path>
  </g>
  <g>
    <path d="M48.954 64.233h8v8h-8z" fill="#e56353"></path>
    <path d="M59.884 64.233h8v8h-8zM70.982 64.233h8v8h-8zM81.982 64.233h8v8h-8zM93.046 64.233h8v8h-8z" fill="#44c4a1"></path>
  </g>
  <g>
    <path d="M48.954 85.233h8v8h-8zM59.884 85.233h8v8h-8z" fill="#44c4a1"></path>
    <path d="M70.982 85.233h8v8h-8z" fill="#e56353"></path>
    <path d="M81.982 85.233h8v8h-8zM93.046 85.233h8v8h-8z" fill="#44c4a1"></path>
  </g>
  <path d="M48.954 96.233h8v8h-8z" fill="#e56353"></path>
  <path d="M59.884 96.233h8v8h-8zM70.982 96.233h8v8h-8z" fill="#44c4a1"></path>
</svg>
